<?xml version="1.0" standalone="no"?>
<!DOCTYPE svg PUBLIC "-//W3C//DTD SVG 20010904//EN"
 "http://www.w3.org/TR/2001/REC-SVG-20010904/DTD/svg10.dtd">
<svg version="1.0" xmlns="http://www.w3.org/2000/svg"
 width="823.000000pt" height="803.000000pt" viewBox="0 0 823.000000 803.000000"
 preserveAspectRatio="xMidYMid meet">

<g transform="translate(0.000000,803.000000) scale(0.100000,-0.100000)"
fill="#fa5959" stroke="none">
<path d="M3960 7870 c-176 -8 -283 -20 -490 -56 -973 -169 -1858 -720 -2462
-1535 -15 -20 -24 -39 -21 -43 4 -3 1 -6 -4 -6 -6 0 -45 -51 -86 -112 -385
-584 -604 -1257 -637 -1966 -35 -748 153 -1514 527 -2145 392 -663 949 -1184
1629 -1525 659 -330 1430 -468 2164 -386 533 59 1028 219 1505 487 173 97 441
282 548 379 11 9 41 34 68 55 83 65 400 393 491 507 401 502 662 1059 788
1675 150 742 82 1506 -197 2211 -162 409 -387 780 -676 1115 -153 178 -395
406 -562 532 -267 201 -419 295 -690 428 -580 284 -1225 415 -1895 385z m600
-406 c1039 -122 1946 -678 2525 -1549 314 -471 494 -967 567 -1560 7 -59 12
-219 12 -390 0 -244 -4 -316 -23 -450 -134 -966 -629 -1803 -1406 -2375 -87
-64 -133 -95 -260 -175 -100 -64 -392 -208 -532 -263 -756 -297 -1618 -321
-2388 -67 -1127 372 -2004 1306 -2300 2450 -213 826 -120 1708 262 2465 176
347 349 592 613 863 556 572 1221 916 2005 1037 260 40 651 46 925 14z"/>
<path d="M3950 6503 c-19 -9 -210 -190 -425 -402 -214 -212 -574 -568 -800
-791 -225 -223 -581 -576 -791 -785 -357 -355 -382 -383 -393 -427 -31 -129
64 -248 198 -248 93 0 45 -43 821 725 245 242 716 708 1047 1034 660 651 642
630 630 734 -16 134 -166 217 -287 160z"/>
<path d="M4995 6271 c-16 -4 -44 -15 -61 -24 -49 -26 -3096 -3090 -3116 -3134
-26 -56 -23 -112 10 -174 49 -94 163 -134 257 -90 28 13 509 488 1577 1557
1601 1603 1577 1578 1578 1660 1 127 -127 233 -245 205z"/>
<path d="M5923 5975 c-28 -14 -74 -51 -104 -83 -47 -51 -664 -679 -1629 -1657
-190 -192 -489 -496 -665 -675 -356 -361 -912 -926 -1194 -1212 -101 -103
-194 -202 -205 -220 -31 -49 -29 -149 3 -202 36 -58 103 -96 168 -96 79 0 117
21 211 118 47 48 216 220 377 382 160 162 587 597 950 965 363 369 819 832
1015 1030 363 368 801 814 1151 1170 190 193 197 202 209 255 15 70 2 126 -43
177 -65 74 -156 92 -244 48z"/>
<path d="M6215 4966 c-41 -18 -3064 -3056 -3092 -3108 -50 -89 -21 -202 65
-263 38 -26 52 -30 110 -30 52 0 75 5 102 22 19 12 584 575 1255 1250 1698
1708 1818 1830 1833 1866 8 20 12 56 10 93 -3 54 -9 68 -43 109 -21 26 -53 54
-71 61 -42 17 -129 17 -169 0z"/>
<path d="M6473 3959 c-26 -12 -114 -94 -234 -217 -105 -108 -309 -316 -453
-462 -1615 -1637 -1644 -1667 -1663 -1708 -20 -45 -16 -132 10 -177 49 -86
158 -126 250 -91 47 18 65 36 1172 1161 335 341 733 745 885 898 151 153 286
297 299 320 29 51 33 136 8 183 -19 36 -79 91 -114 105 -41 16 -115 10 -160
-12z"/>
</g>
</svg>
