<?xml version="1.0" standalone="no"?>
<!DOCTYPE svg PUBLIC "-//W3C//DTD SVG 20010904//EN"
 "http://www.w3.org/TR/2001/REC-SVG-20010904/DTD/svg10.dtd">
<svg version="1.0" xmlns="http://www.w3.org/2000/svg"
 width="522.75px" height="117.9px" viewBox="0 0 3485.000000 786.000000"
 preserveAspectRatio="xMidYMid meet">

<g transform="translate(0.000000,786.000000) scale(0.100000,-0.100000)"
fill="#fa4949" stroke="none">
<path d="M30635 7839 c-502 -41 -993 -177 -1435 -399 -383 -192 -708 -427
-1015 -735 -641 -640 -1026 -1446 -1127 -2360 -20 -180 -17 -653 6 -835 92
-760 370 -1424 843 -2015 107 -134 342 -377 478 -494 591 -510 1285 -820 2075
-926 166 -23 622 -31 801 -16 933 81 1782 475 2439 1131 655 655 1051 1509
1130 2438 16 186 8 633 -15 802 -99 738 -372 1385 -829 1960 -190 239 -526
555 -791 745 -567 405 -1247 649 -1964 705 -153 11 -447 11 -596 -1z m750
-404 c651 -90 1208 -322 1725 -721 150 -116 480 -446 594 -594 261 -339 439
-668 567 -1049 256 -760 245 -1582 -33 -2341 -60 -164 -223 -496 -315 -643
-563 -892 -1486 -1487 -2519 -1622 -700 -92 -1414 29 -2045 345 -490 246 -953
644 -1277 1097 -338 472 -549 1013 -629 1608 -25 189 -25 678 0 865 24 172 49
301 92 465 253 968 923 1793 1822 2244 411 206 800 314 1308 365 102 10 596
-3 710 -19z"/>
<path d="M30769 6491 c-14 -5 -36 -14 -49 -21 -14 -7 -552 -534 -1196 -1172
-989 -977 -1175 -1165 -1190 -1203 -64 -170 108 -330 274 -255 31 14 353 326
1213 1176 643 636 1176 1169 1183 1183 79 155 -71 341 -235 292z"/>
<path d="M31735 6231 c-29 -13 -475 -455 -1575 -1559 -844 -848 -1543 -1557
-1552 -1574 -26 -48 -24 -134 5 -189 51 -95 181 -134 272 -80 48 28 3081 3068
3112 3120 44 70 25 188 -39 248 -56 53 -151 67 -223 34z"/>
<path d="M32704 5948 c-54 -30 -3772 -3805 -3798 -3856 -53 -104 7 -245 120
-282 54 -18 131 -6 177 27 70 51 3757 3804 3779 3846 31 61 23 153 -18 203
-51 64 -78 78 -152 82 -56 3 -74 0 -108 -20z"/>
<path d="M33005 4941 c-60 -27 -3077 -3062 -3105 -3122 -37 -81 -20 -162 45
-225 58 -56 122 -72 198 -50 52 15 88 50 1580 1550 1150 1155 1532 1545 1547
1578 76 167 -100 345 -265 269z"/>
<path d="M33285 3948 c-48 -13 -5 30 -1364 -1351 -540 -549 -991 -1013 -1001
-1030 -86 -141 41 -327 206 -302 23 3 57 16 76 28 62 42 2307 2330 2328 2373
23 47 26 120 7 167 -19 44 -87 103 -134 116 -45 13 -64 12 -118 -1z"/>
<path d="M20467 6520 c-96 -25 -198 -102 -250 -191 -61 -103 -57 44 -57 -2364
0 -2408 -4 -2261 57 -2364 134 -229 458 -268 649 -77 67 67 102 145 114 249
13 112 13 4297 0 4396 -19 146 -103 268 -225 326 -50 24 -75 29 -155 31 -52 2
-112 -1 -133 -6z"/>
<path d="M7933 6380 c-242 -31 -313 -120 -313 -396 0 -320 74 -401 380 -412
323 -11 446 54 481 253 16 91 7 315 -15 374 -34 93 -101 146 -211 169 -75 16
-241 22 -322 12z"/>
<path d="M1575 6314 c-103 -11 -296 -48 -392 -75 -283 -79 -512 -205 -700
-382 -264 -251 -393 -562 -393 -951 0 -543 243 -943 715 -1179 232 -116 439
-176 835 -241 504 -83 788 -189 963 -360 162 -157 211 -400 116 -587 -131
-261 -566 -440 -1004 -414 -396 23 -652 120 -988 373 -170 129 -190 137 -322
137 -104 0 -113 -2 -171 -32 -154 -81 -245 -256 -217 -420 24 -135 94 -236
251 -362 385 -306 760 -442 1332 -482 637 -44 1207 131 1578 486 229 218 351
440 398 724 23 140 15 451 -15 589 -53 247 -139 412 -295 567 -237 235 -582
375 -1272 515 -133 27 -288 61 -345 75 -518 131 -724 297 -746 600 -11 163 35
285 151 400 166 164 447 245 806 232 181 -7 267 -24 485 -98 233 -79 407 -167
563 -286 169 -128 427 -43 535 176 30 61 32 73 32 166 0 93 -2 105 -32 166
-42 85 -96 145 -205 230 -263 203 -602 343 -993 410 -95 17 -173 22 -375 24
-140 2 -273 1 -295 -1z"/>
<path d="M11155 5174 c-343 -38 -681 -222 -913 -499 -41 -49 -78 -91 -82 -93
-5 -2 -9 48 -11 111 -4 107 -6 117 -42 189 -60 123 -159 196 -297 220 -185 32
-363 -61 -443 -230 l-32 -67 0 -1550 0 -1550 32 -67 c81 -171 257 -262 445
-230 138 24 241 102 301 230 l32 67 6 1015 c5 889 7 1023 21 1080 68 270 202
440 430 544 126 58 193 70 378 71 248 0 350 -34 477 -161 110 -109 165 -241
192 -459 7 -60 11 -412 11 -1051 0 -608 4 -981 10 -1015 41 -215 247 -356 472
-321 91 14 167 53 229 119 59 63 94 134 108 223 7 42 11 402 11 1011 0 616 4
966 11 1005 55 310 247 530 544 620 84 26 102 28 270 28 169 0 185 -2 262 -27
235 -78 358 -254 402 -572 7 -50 11 -411 11 -1038 0 -620 4 -985 11 -1027 14
-89 49 -160 108 -223 62 -66 138 -105 229 -119 225 -35 431 106 472 321 14 73
13 1939 0 2126 -24 315 -84 583 -173 760 -60 120 -111 191 -206 286 -166 165
-350 240 -657 270 -350 33 -634 -43 -919 -246 -151 -108 -361 -332 -437 -466
-12 -21 -25 -39 -28 -39 -4 0 -13 19 -19 43 -18 59 -93 208 -142 281 -163 239
-357 360 -664 411 -92 16 -338 27 -410 19z"/>
<path d="M17535 5174 c-176 -21 -310 -58 -464 -130 -139 -65 -280 -164 -402
-281 l-107 -104 -7 58 c-15 132 -51 209 -131 282 -229 210 -601 103 -678 -194
-14 -53 -16 -302 -16 -2245 0 -2361 -3 -2237 51 -2342 30 -59 111 -135 174
-164 196 -90 423 -28 535 146 66 103 64 72 70 868 l5 723 70 -61 c214 -186
504 -327 775 -376 132 -24 409 -24 545 0 216 39 452 138 627 263 105 75 273
236 354 338 223 287 361 637 403 1027 14 122 14 434 1 553 -89 811 -617 1451
-1321 1604 -152 33 -367 48 -484 35z m268 -783 c314 -82 572 -337 688 -678 54
-161 64 -230 64 -453 0 -161 -4 -223 -18 -288 -81 -367 -283 -651 -562 -787
-151 -74 -220 -89 -430 -89 -210 0 -279 15 -430 88 -386 189 -618 639 -591
1149 29 565 353 981 833 1072 109 20 341 13 446 -14z"/>
<path d="M23335 5174 c-586 -60 -1063 -402 -1336 -959 -141 -287 -203 -583
-203 -960 0 -293 28 -483 105 -719 194 -594 669 -1043 1230 -1165 207 -44 426
-50 622 -16 256 45 548 193 742 376 47 45 87 80 89 78 1 -2 8 -33 14 -68 32
-177 159 -303 335 -334 234 -40 446 117 477 353 13 100 13 2960 0 3058 -24
184 -145 316 -325 352 -240 49 -466 -116 -492 -361 -3 -32 -8 -59 -10 -59 -2
0 -33 25 -70 56 -198 168 -491 304 -753 348 -94 16 -347 28 -425 20z m517
-783 c176 -46 312 -125 438 -252 124 -125 204 -259 265 -442 47 -144 65 -264
65 -441 0 -180 -18 -303 -65 -443 -124 -371 -373 -612 -723 -700 -95 -24 -370
-24 -465 0 -302 76 -558 305 -683 611 -162 397 -126 891 88 1233 150 238 378
399 635 448 111 21 342 14 445 -14z"/>
<path d="M7963 5100 c-73 -15 -132 -47 -192 -105 -63 -60 -102 -130 -120 -213
-16 -75 -16 -2979 0 -3054 44 -206 226 -342 436 -324 103 8 173 38 243 103 67
62 114 145 130 232 14 74 14 2958 0 3032 -25 133 -130 265 -246 309 -65 24
-187 34 -251 20z"/>
<path d="M4410 5024 c-73 -20 -127 -53 -179 -109 -70 -77 -86 -122 -86 -250 0
-100 2 -115 28 -167 46 -93 128 -164 232 -202 20 -7 271 -12 748 -16 l717 -5
-839 -1085 c-462 -597 -854 -1109 -872 -1138 -42 -69 -59 -134 -66 -252 -4
-81 -2 -103 16 -150 33 -88 104 -169 185 -210 l69 -35 1211 0 1211 0 57 23
c81 33 160 108 200 190 30 60 33 75 33 157 0 127 -21 181 -105 266 -48 48 -81
72 -125 90 l-60 24 -773 5 -773 5 850 1100 c468 605 864 1125 880 1155 36 69
52 142 52 246 0 118 -26 181 -110 265 -114 114 10 104 -1306 106 -980 2 -1148
0 -1195 -13z"/>
</g>
</svg>
